<?xml version="1.0" encoding="UTF-8" standalone="no"?>
<!DOCTYPE svg PUBLIC "-//W3C//DTD SVG 1.1//EN" "http://www.w3.org/Graphics/SVG/1.1/DTD/svg11.dtd">
<svg width="100%" height="100%" viewBox="0 0 2939 4193" version="1.1" xmlns="http://www.w3.org/2000/svg" xmlns:xlink="http://www.w3.org/1999/xlink" xml:space="preserve" xmlns:serif="http://www.serif.com/" style="fill-rule:evenodd;clip-rule:evenodd;stroke-linejoin:round;stroke-miterlimit:2;">
    <g transform="matrix(1,0,0,1,-254.251337,-321.339206)">
        <g transform="matrix(7.308155,0,0,7.308155,101.357082,163.315023)">
            <path d="M304.62,225.194C347.474,231.548 348.735,231.154 348.24,232.346C348.174,232.505 304.285,248.031 300.459,249.384C195.596,286.48 195.284,286.905 194.813,286.274C193.672,284.748 208.49,269.918 206.335,268.903C206.254,268.865 154.967,283.254 150.502,284.506C137.316,288.206 137.472,289.246 136.432,288.7C134.617,287.749 135.908,286.702 154.123,270.186C157.105,267.483 151.758,268.608 151.522,268.658C145.388,269.949 145.462,269.839 137.45,271.239C98.825,277.989 99.008,278.791 95.616,279.08C95.43,279.096 93.922,278.962 95.888,276.769C102.804,269.06 118.94,248.662 121.677,245.645C129.904,236.575 110.447,247.801 109.515,247.416C107.717,246.674 109.412,245.93 123.861,227.786C141.113,206.122 142.584,206.898 142.687,204.505C142.771,202.549 136.954,204.473 139.405,201.442C161.963,173.55 170.549,165.404 173.552,162.554C222.806,115.819 280.996,135.917 291.228,141.964C307.055,151.317 304.956,157.2 304.821,161.515C304.721,164.716 318.315,170.877 323.026,178.809C336.204,200.995 314.178,216.738 303.807,223.72L304.62,225.194ZM294.54,166.08C294.256,166.087 291.554,165.848 287.475,166.255C268.549,168.145 249.343,193.24 222.689,182.08C199.578,172.403 184.934,196.308 202.603,208.34C224.24,223.073 234.941,195.88 268.698,215.146C273.801,218.058 286.772,216.499 281.388,214.679C262.347,208.245 249.382,200.198 230.539,204.657C228.302,205.187 205.448,210.596 202.253,199.569C201.501,196.974 198.849,180.315 235.482,193.557C275.272,207.94 276.831,204.621 296.686,218.204C297.604,218.832 299.835,220.359 309.196,212.144C335.411,189.139 312.446,168.232 294.54,166.08ZM270.504,181.759C270.764,181.792 273.268,182.107 273.279,183.499C273.303,186.474 271.915,186.217 269.4,184.648C267.39,183.394 261.46,185.418 261.511,183.5C261.543,182.293 269.773,181.802 270.504,181.759ZM187.485,182.424C187.306,181.995 186.61,181.938 186.431,181.508C186.248,181.068 190.024,175.499 189.486,174.505C189.334,174.225 186.302,174.49 187.735,172.644C193.163,165.655 197.606,163.319 198.648,162.771C227.44,147.635 244.268,180.639 271.546,168.6C282.477,163.776 282.686,164.538 294.544,162.737C308.666,160.592 291.6,142.684 265.542,138.263C233.125,132.764 211.648,144.326 202.629,148.757C188.394,155.751 161.748,181.163 161.808,181.443C162.244,183.454 172.099,177.312 167.343,182.392C163.99,185.974 160.014,191.382 157.083,195.171C143.063,213.291 141.98,212.571 141.486,214.496C140.65,217.757 142.942,215.348 146.358,214.11C159.578,209.319 160.608,207.752 160.653,209.463C160.676,210.295 136.487,238.382 136.531,238.501C137.362,240.73 138.073,238.979 141.411,237.299C143.324,236.336 163.126,226.369 165.516,225.658C167.314,225.124 166.368,227.305 166.305,227.449C161.406,238.74 160.908,238.498 160.547,239.504C160.49,239.665 160.074,242.084 162.64,239.912C166.721,236.457 173.223,232.112 174.326,231.148C177.494,228.377 176.451,232.305 176.4,232.497C176.315,232.818 175.387,237.835 180.451,233.444C183.11,231.138 183.506,231.787 186.566,233.369C197.285,238.908 209.73,225.603 209.742,224.493C209.763,222.6 208.712,223.578 204.484,223.587C200.541,223.595 204.007,221.701 206.43,218.447C209.076,214.896 192.718,209.895 191.651,198.482C189.457,175.008 215.37,176.948 215.641,176.567C216.512,175.345 209.724,172.783 213.5,172.501C213.77,172.48 223.914,171.642 214.564,169.287C206.783,167.329 204.361,171.714 203.729,171.976C201.01,173.101 199.739,171.055 187.485,182.424ZM248.578,175.505L248.402,177.288C240.484,179.139 239.542,178.106 236.061,170.722C232.738,163.673 217.595,173.847 227.495,179.508C238.604,185.86 261.319,175.518 253.445,174.785C250.635,174.524 250.114,173.241 248.578,175.505ZM214.488,203.785C221.982,204.447 222.729,204.305 235.792,200.9C235.26,200.763 236.232,199.392 235.7,199.255C235.063,199.091 235.056,199.68 227.48,199.331C226.991,199.309 226.021,199.264 221.55,200.866C218.794,201.853 217.959,203.497 216.79,200.742C217.58,200.082 218.84,200.191 219.631,199.531C221.671,197.83 212.196,199.257 212.452,197.516C212.648,196.186 212.414,195.347 206.477,195.388C205.549,195.395 200.972,200.359 214.488,203.785ZM263.094,233.184L264.069,232.29C263.98,231.985 263.421,231.99 263.332,231.684L262.529,231.335C241.82,238.337 236.066,238.409 201.516,249.64C196.879,251.148 202.712,245.811 205.699,242.688C205.996,242.377 216.043,233.126 211.517,234.8C204.119,237.537 131.765,264.307 118.51,267.527C115.05,268.368 112.975,270.33 115.499,270.504C116.159,270.549 137.492,264.521 162.421,260.068C165.225,259.567 181.29,254.929 174.886,259.805C171.995,262.007 159.029,274.106 156.473,275.48C154.92,276.314 155.776,277.831 157.466,277.24C174.283,271.365 219.089,258.827 224.475,257.321C229.715,255.854 224.797,259.797 215.045,271.127C212.28,274.339 210.705,274.777 212.471,275.614C213.029,275.878 212.931,275.242 266.534,255.602C297.442,244.276 311.385,239.995 311.403,239.5C311.484,237.186 300.301,241.323 275.43,245.093C266.702,246.416 249.72,249.679 247.49,250.107C243.511,250.872 248.214,246.64 248.439,246.437C254.121,241.325 255.295,239.424 263.094,233.184ZM206.748,192.536L207.75,193.143C218.687,193.42 219.423,193.716 218.978,194.504C218.247,195.793 218.035,196.381 219.49,196.543C220.69,196.677 234.026,198.161 234.543,197.542C234.848,197.177 234.476,196.5 234.781,196.136C220.509,191.956 212.21,188.193 206.748,192.536ZM413.615,460.417C410.497,448.813 410.536,448.447 409.521,448.38C402.846,447.942 392.197,488.479 401.218,482.069C407.73,477.441 401.695,475.201 402.432,469.492C403.257,463.103 420.14,461.812 422.014,464.857C422.493,465.636 415.449,501.371 410.882,497.025C406.863,493.201 406.395,493.04 399.522,494.612C378.742,499.367 383.047,458.42 404.817,437.838C405.81,436.898 413.26,429.855 421.213,442.666C427.467,452.742 415.608,460.565 415.049,461.087C414.16,461.209 414.209,461.047 413.615,460.417ZM150.488,464.444C135.068,469.536 146.971,436.776 139.513,436.909C134.638,436.996 131.604,438.543 127.237,423.58C127.039,422.899 126.2,404.592 132.494,404.964C146.783,405.808 133.371,417.437 138.302,427.608C143.317,437.951 150.064,402.496 151.649,399.582C153.277,396.59 161.432,396.844 160.751,402.533C159.518,412.848 153.615,450.884 152.166,462.48C155.99,468.474 162.379,465.12 161.345,469.458C158.043,483.323 154.518,521.809 148.767,520.178C147.061,519.694 143.162,499.109 150.337,470.455C150.67,469.123 151.097,467.817 151.433,466.486C151.647,465.634 151.619,465.573 151.585,465.5C151.251,464.777 150.846,465.217 150.488,464.444ZM279.218,458.288C277.672,462.028 277.218,462.785 276.444,463.424C272.019,467.077 266.265,458.768 259.593,472.544C256.668,478.581 261.83,475.99 268.485,476.589C271.721,476.88 269.789,485.961 262.343,488.007C256.422,489.635 255.191,489.894 255.119,497.506C255.083,501.31 265.763,499.595 267.494,502.504C272.303,510.587 252.814,516.089 245.714,506.343C239.846,498.289 251.034,458.469 251.64,457.59C253.941,454.248 273.717,454.033 279.449,455.635L281.223,455.42C282.901,448.246 290.881,453.026 291.263,448.468C293.426,422.668 292.66,421.72 290.519,421.374C278.075,419.365 286.679,437.582 275.76,444.973C271.158,448.088 270.09,432.386 271.281,425.47C277.941,386.792 278.15,385.689 281.424,385.071C292.976,382.894 288.453,398.467 287.256,405.474C286.503,409.881 288.984,408.51 293.441,408.037C299.524,407.391 295.195,379.955 304.424,382.765C304.899,382.909 309.326,384.257 310.263,384.859C311.913,385.919 310.77,386.386 310.163,390.443C305.021,424.807 305.477,432.074 300.822,445.613C299.142,450.498 302.323,449.231 307.428,449.97C315.952,451.205 321.959,462.447 309.061,478.105C301.72,487.017 307.048,488.365 314.415,491.679C321.118,494.695 318.012,506.077 309.592,503.233C293.607,497.835 291.694,482.96 290.315,490.437C290.033,491.97 286.088,513.358 282.673,508.369C274.477,496.398 284.695,473.061 286.427,461.493C286.955,457.968 285.064,459.137 281.558,458.399C281.38,458.34 281.434,458.547 279.218,458.288ZM296.52,461.137C295.614,461.238 292.657,459.894 293.67,463.458C293.737,463.695 293.722,463.694 294.727,471.455C295.594,478.152 303.848,464.021 303.555,462.471C303.359,461.436 302.871,461.891 296.52,461.137ZM353.561,305.588C352.989,305.871 348.614,308.036 345.673,304.369C339.814,297.065 356.69,289.876 355.808,302.528C355.01,304.371 355.001,304.29 353.561,305.588ZM99.5,127.067C95.552,127.078 83.804,127.981 76.612,124.292C59.679,115.607 54.506,75.042 78.652,52.668C106.4,26.959 168.144,23.582 169.055,37.529C170.732,63.199 166.685,64.815 164.569,65.661C152.259,70.578 133.328,75.135 130.568,75.799C125.84,76.937 127.649,70.046 124.485,66.514C113.903,54.702 96.15,84.709 115.519,86.292C144.531,88.662 176.614,78.273 175.099,128.481C174.18,158.955 168.559,158.618 167.569,159.571C157.146,169.607 153.724,175.125 150.599,176.687C129.464,187.256 112.319,193.237 89.51,193.818C69.616,194.325 67.731,193.291 67.592,187.5C66.884,158.063 68.511,157.165 70.733,155.939C73.099,154.634 105.168,141.95 105.575,141.838C108.295,141.092 107.302,142.872 108.499,145.5C115.181,160.174 128.921,150.052 129.761,141.537C131.438,124.525 111.741,126.946 99.5,127.067ZM396.112,67.475C395.001,78.147 395.702,78.181 392.831,88.584C390.183,98.179 394.465,167.086 388.545,178.521C386.443,182.582 376.881,201.052 331.431,180.649C327.677,178.964 327.836,173.981 315.389,164.648C308.016,159.119 314.544,154.156 302.309,143.729C299.307,141.171 294.848,139.839 294.842,135.499C294.755,70.476 297.227,70.092 292.337,54.543C292.202,54.115 287.665,25.991 289.419,25.367C289.534,25.326 336.918,32.979 339.077,35.795C340.72,37.939 340.244,54.707 336.975,60.748C333.444,67.275 333.156,67.566 333.166,111.5C333.172,138.606 331.825,150.441 345.505,151.403C355.425,152.102 353.824,146.613 353.785,98.5C353.76,68.372 353.032,68.318 352.019,66.88C346.132,58.529 347.913,57.781 347.468,39.498C347.387,36.158 354.279,39.855 359.488,41.536C391.887,51.997 396.959,52.868 396.806,56.506C396.769,57.384 396.755,57.318 396.112,67.475ZM222.05,106.499C222.123,112.033 220.407,121.286 233.437,120.059C240.062,119.434 239.458,116.459 239.468,76.5C239.474,54.492 239.591,54.275 235.699,46.393C234.957,44.89 233.617,42.176 233.997,25.502C234.128,19.751 236.85,21.987 242.507,22.371C281.314,25.011 283.066,23.73 283.117,26.517C283.377,40.9 285.994,41.613 279.277,54.37C276.172,60.268 279.308,130.107 276.65,130.846C272.09,132.114 234.23,115.712 186.397,144.329C183.654,145.971 183.496,147.28 182.158,145.778C181.013,144.492 183.501,68.12 180.031,56.62C178.219,50.616 175.435,49.774 176.942,28.535C177.247,24.241 179.538,25.774 218.49,22.373C219.099,22.32 225.597,21.753 226.117,22.709C226.227,22.91 226.894,37.763 226.82,39.52C226.446,48.442 221.79,50.177 221.689,54.515C221.527,61.469 221.954,101.822 222.05,106.499ZM159.5,296.04C172.56,295.863 170.976,301.502 171.056,328.498C171.074,334.716 166.728,334.676 168.936,337.082C170.532,338.821 172.207,340.646 170.89,366.518C170.325,377.608 164.4,375.854 125.5,375.854C93.453,375.854 91.727,376.368 91.88,373.531C92.402,363.833 108.334,365.848 120.5,365.848C159.578,365.848 160.296,366.096 160.733,364.575C160.908,363.967 160.866,342.845 160.764,342.429C160.355,340.768 159.537,341.042 116.5,341.039C112.884,341.039 108.502,340.03 108.469,343.499C108.377,353.009 109.429,360.334 106.491,360.414C105.847,360.432 98.964,360.62 98.483,359.509C98.074,358.564 97.997,313.195 98.536,312.522C99.331,311.529 108.315,309.972 108.327,314.502C108.358,326.211 107.049,330.764 111.498,330.77C159.977,330.84 160.347,330.549 160.661,329.557C160.844,328.981 160.903,308.246 160.625,307.449C159.841,305.2 123.068,306.73 102.501,306.324C91.815,306.114 91.323,297.476 92.434,296.418C92.888,295.985 93.011,296.04 159.5,296.04ZM188.5,306.054C184.256,305.847 184.138,306.524 181.672,305.158C181.228,304.913 178.396,303.344 177.238,300.624C174.445,294.062 179.43,296.103 186.5,296.103C254.25,296.104 255.092,295.89 255.453,297.511C256.739,303.274 252.636,307.397 252.012,308.024C197.415,362.877 189.046,365.744 195.494,365.538C200.133,365.39 229.645,364.447 253.512,365.403C256.563,365.525 256.281,375.333 245.5,375.662C213.806,376.63 183.845,375.798 178.486,375.649C175.018,375.553 176.104,367.862 178.834,364.784C184.978,357.855 222.967,321.586 226.851,317.878C237.629,307.587 238.524,307.837 238.106,306.63C237.864,305.931 237.6,306.054 188.5,306.054ZM211.036,421.471C210.904,422.701 209.129,439.288 214.527,436.535C217.399,435.071 221.811,421.777 222.262,420.419C225.637,410.248 223.535,406.296 230.379,401.324C232.774,399.584 235.803,394.683 242.442,393.232C262.481,388.85 273.33,385.104 273.765,393.476C273.955,397.134 260.248,396.749 259.176,400.394C256.16,410.645 254.655,443.871 250.282,446.015C240.54,450.791 243.397,442.507 243.942,437.546C247.511,405.031 250.579,399.692 244.586,400.929C238.341,402.219 236.803,401.228 235.158,407.415C232.482,417.478 229.07,456.157 205.67,447.076C193.677,442.422 200.07,424.221 202.972,402.553C204.101,394.12 213.648,393.647 213.169,405.483C213.117,406.772 212.979,410.176 211.036,421.471ZM295.269,544.923C292.992,547.867 294.359,548.28 291.713,561.54C290.259,568.822 284.323,575.233 282.755,574.219C279.264,571.959 281.136,558.805 281.326,557.474C285.256,529.864 288.409,524.268 289.853,521.705C291.778,518.288 301.258,519.557 305.041,533.632C308.428,546.232 311.191,514.84 327.506,515.203C334.093,515.349 333.005,518.058 332.769,519.551C331.503,527.547 331.756,527.522 330.944,535.535C328.607,558.583 326.878,568.031 322.429,570.36C313.708,574.926 321.941,531.881 317.256,542.246C316.003,545.018 314.94,547.199 314.731,547.627C302.275,573.181 297.843,548.089 295.269,544.923ZM211.945,541.505C211.433,538.925 211.537,538.965 210.933,536.406C206.585,517.956 231.208,524.012 237.225,527.953C267.451,547.748 217.87,588.669 207.849,582.003C205.826,580.656 211.088,552.281 211.945,541.505ZM219.093,559.426C218.057,564.053 217.54,565.751 218.566,566.306C221.25,567.76 247.637,545.477 227.545,536.391C222.933,534.306 223.906,537.564 222.808,542.556C222.511,543.906 219.115,559.347 219.093,559.426ZM98.032,509.447C97.891,510.322 96.573,532.719 88.489,529.525C80.609,526.412 72.009,494.64 71.003,504.304C70.421,509.888 67.419,544.346 58.918,530.226C56.459,526.141 57.714,524.264 59.694,507.523C62.648,482.534 64.853,477.798 69.387,478.957C84.344,482.78 83.269,502.804 87.203,502.094C88.653,501.832 88.611,473.9 94.529,472.631C101.175,471.205 102.833,472.689 102.042,479.427C101.76,481.834 100.021,496.647 98.032,509.447ZM369.735,470.136C371.061,468.508 370.65,468.328 372.155,460.431C375.235,444.272 373.613,438.416 383.535,441.377C387.799,442.649 385.122,448.068 381.458,475.495C380.814,480.316 379.109,507.154 368.726,495.309C365.578,491.717 359.096,477.193 358.369,475.564C357.651,473.954 357.349,472.114 356.301,470.697C355.992,470.279 354.934,470.175 354.74,470.658C354.672,470.831 351.087,513.751 342.41,498.557C338.951,492.5 346.143,449.543 349.499,447.498C357.142,442.839 361.755,452.598 362.238,453.621C362.448,454.065 369.642,469.951 369.735,470.136ZM194.708,488.935L195.288,488.43C195.449,486.631 195.432,486.641 195.462,486.488C198.474,471.29 197.083,471.091 199.272,463.423C200.569,458.881 211.583,459.555 210.703,463.543C205.372,487.699 204.968,523.895 197.588,518.376C188.394,511.5 187.396,504.45 183.244,495.619C175.757,479.694 180.842,505.178 173.216,519.347C169.798,525.697 164.538,516.538 165.546,509.506C169.751,480.168 170.419,476.45 170.933,473.59C173.08,461.644 183.172,467.397 186.168,472.689C194.471,487.36 192.957,488.042 193.713,489.289C193.895,489.59 194.525,488.634 194.708,488.935ZM102.954,507.525C103.069,506.85 104.405,493.246 111.815,481.713C118.22,471.744 125.436,462.476 135.272,470.785C146.976,480.67 131.518,498.83 129.227,490.585C128.662,488.552 128.211,486.486 127.618,484.461C126.702,481.334 126.043,479.386 123.988,481.955C112.454,496.377 113.489,518.009 117.392,514.362C123.059,509.067 119.522,506.792 118.863,505.335C113.536,493.555 137.878,496.285 138.381,496.675C139.479,497.527 134.1,522.958 130.037,529.175C128.461,531.584 127.732,530.14 126.314,527.607C123.172,521.994 117.754,529.219 110.354,526.945C100.334,523.866 102.958,509.29 102.954,507.525ZM160.938,433.477C160.991,431.562 159.604,420.4 168.81,402.663C169.16,401.987 173.237,394.134 176.29,396.787C180.657,400.581 181.01,399.836 186.566,401.226C205.281,405.908 190.948,451.828 174.494,451.071C161.96,450.494 161.909,438.971 160.938,433.477ZM182.928,426.641C183.108,425.522 184.478,416.983 182.546,412.478C182.351,412.024 179.62,405.656 177.716,408.647C170.558,419.892 173.137,433.355 173.546,435.489C175.163,443.931 182.506,427.583 182.928,426.641ZM126.934,546.468C128.038,556.606 130.888,570.327 128.023,587.419C127.906,588.117 126.242,598.047 122.599,594.404C120.394,592.201 119.958,577.001 115.504,577.539C104.341,578.885 107.755,585.08 102.924,590.869C98.398,596.292 95.002,597.416 93.345,590.53C93.119,589.589 91.987,589.112 109.581,546.533C110.063,545.366 111.724,538.387 117.379,537.044C125.676,535.074 126.816,545.401 126.934,546.468ZM114.901,557.834C113.462,562.091 113.357,561.952 110.803,565.67C109.228,567.964 115.745,568.829 116.067,565.471C116.119,564.922 116.561,560.305 116.322,558.582C116.106,557.035 115.093,557.829 114.901,557.834ZM200.943,545.467C202.629,564.607 203.943,564.879 200.006,584.41C199.343,587.701 195.743,588.212 194.817,584.417C192.178,573.594 192.485,568.687 186.621,569.98C177.671,571.952 181.156,577.406 175.177,584.216C168.32,592.026 164.991,584.241 167.241,577.41C167.769,575.807 183.947,535.048 184.794,533.659C186.255,531.262 198.837,520.173 200.179,540.524C200.213,541.036 200.878,545.072 200.943,545.467ZM185.715,555.651C180.327,562.203 188.895,559.563 189.318,558.43C189.468,558.03 189.76,550.997 189.463,550.533C188.497,549.021 188.485,550.824 185.715,555.651ZM345.54,549.939C343.175,549.878 339.623,550.913 335.394,535.527C335.3,535.182 335.155,519.137 339.564,517.771C339.922,517.66 346.835,517.193 347.437,520.511C347.861,522.853 342.414,544.459 349.549,541.599C355.952,539.032 356.643,509.396 363.512,510.357C370.766,511.373 369.427,514.388 367.007,530.429C360.229,575.351 361.215,576.976 357.534,577.682C354.01,578.357 350.937,576.2 350.746,571.481C350.19,557.782 350.957,553.666 350.425,551.519C349.765,548.858 346.154,549.895 345.54,549.939ZM145.977,560.57C144.114,571.526 146.444,576.295 149.582,573.601C150.031,573.216 165.317,559.131 165.463,565.504C165.493,566.779 168.308,569.429 156.171,582.174C131.754,607.815 125.225,559.597 144.585,537.573C156.886,523.579 175.6,545.125 161.197,556.033C157.591,558.764 155.852,543.583 151.935,547.936C147.019,553.399 146.25,559.539 145.977,560.57ZM210.964,493.548C212.044,488.832 214.754,470.594 217.488,462.495C218.037,460.869 218.853,458.452 238.499,458.166C240.556,458.136 249.871,456.379 243.54,466.53C241.918,469.133 228.702,464.544 225.032,478.478C224.379,480.958 226.258,479.736 234.54,480.212C238.305,480.429 235.908,487.796 232.22,490.077C226.462,493.636 221.601,490.542 221.339,501.509C221.282,503.915 231.311,504.549 231.484,504.576C235.23,505.172 237.381,512.079 229.387,514.031C205.009,519.984 210.699,495.729 210.964,493.548ZM271.449,532.071C269.097,532.451 265.811,531.702 261.651,541.56C259.8,545.947 274.461,540.899 272.736,547.554C269.82,558.797 258.855,553.302 258.207,560.453C258.159,560.981 257.645,566.658 259.327,566.982C260.854,567.276 271.844,567.029 271.2,573.464C270.713,578.335 244.234,587.205 246.935,561.555C247.371,557.412 252.302,527.791 254.751,524.675C256.828,522.031 282.943,520.323 282.609,524.511C282.592,524.723 280.553,529.463 280.058,530.19C278.522,532.445 277.932,531.352 271.449,532.071ZM38.522,501.116C45.174,501.424 45.928,500.251 46.822,502.302C47.156,503.067 47.898,510.389 39.534,512.643C36.302,513.515 32.115,513.01 32.168,522.515C32.19,526.456 46.257,523.218 45.74,530.518C45.335,536.246 17.588,543.861 21.255,518.465C23.348,503.963 27.252,484.904 28.694,482.606C29.714,480.979 31.011,478.912 52.5,479.495C60.552,479.714 54.644,488.529 52.556,488.76C50.956,488.938 43.803,488.441 39.88,491.862C39.427,492.257 35.22,499.023 35.803,500.351C36.19,501.232 36.453,500.862 38.522,501.116ZM261.188,372.427C261.364,371.975 262.665,365.873 270.502,365.542C272.055,365.476 329.866,365.51 330.499,365.528C339.864,365.797 341.662,375.049 338.523,375.63C335.608,376.17 269.498,375.705 263.496,375.662C260.051,375.638 261.188,373.012 261.188,372.427ZM283.5,306.054C275.052,306.054 262.618,308.151 261.083,298.549C260.382,294.167 263.664,296.04 316.5,296.04C337.658,296.04 340.887,295.056 339.603,299.524C339.372,300.327 337.824,305.713 331.475,306.075C330.709,306.119 298.847,306.12 283.5,306.054ZM333.075,473.466C332.659,475.813 327.984,502.13 325.458,502.271C322.762,502.422 320.101,486.504 321.327,478.482C325.864,448.807 325.01,445.967 330.502,446.464C335.339,446.901 337.224,446.675 336.307,451.456C334.205,462.421 334.472,462.355 333.075,473.466ZM300.5,360.099C296.548,359.871 296.322,360.27 295.665,359.381C295.313,358.904 295.301,355.812 295.299,355.5C295.145,315.854 294.421,315.767 295.439,312.479C295.824,311.238 301.93,311.247 302.503,311.248C303.33,311.249 305.309,311.078 305.373,313.508C305.38,313.776 305.4,357.197 305.35,358.478C305.25,361.022 303.97,359.791 300.5,360.099Z" style="fill:rgb(1,1,1);"/>
        </g>
    </g>
</svg>
